#N canvas 639 312 1142 722 12;
#X declare -path dep/;
#X obj 97 153 adc~;
#X obj 97 666 dac~;
#X obj 327 66 hsl 128 17 -15 15 0 0 empty empty empty -2 -8 0 10 #181818 #fcfcfc #fcfcfc 0 1;
#X msg 327 91 highvol \$1, f 11;
#X obj 327 155 hsl 128 17 -15 15 0 0 empty empty empty -2 -8 0 10 #181818 #fcfcfc #fcfcfc 0 1;
#X msg 327 180 midvol \$1, f 11;
#X obj 327 259 hsl 128 17 -15 15 0 0 empty empty empty -2 -8 0 10 #181818 #fcfcfc #fcfcfc 0 1;
#X msg 327 284 lowvol \$1, f 11;
#X msg 566 217 midfreq \$1, f 12;
#X msg 680 266 midq \$1, f 9;
#X obj 566 176 hsl 128 17 313.3 5705.6 1 0 empty empty empty -2 -8 0 10 #000000 #fcfcfc #585858 0 1;
#X obj 555 64 loadbang;
#X msg 603 102 1337, f 7;
#X msg 555 102 0, f 5;
#X obj 680 210 wstd.cmpnnts/eqmidq;
#X obj 680 238 wstd.cmpnnts/qcalc;
#X obj 81 60 declare -path dep/;
#X obj 67 302 +~;
#X obj 132 302 -~;
#N canvas 311 176 995 434 ms_eq_pass 0;
#X obj 292 123 inlet~;
#X obj 433 123 inlet~;
#X obj 653 123 inlet;
#X obj 361 319 outlet~;
#X obj 721 319 outlet~;
#X obj 257 233 throw~ \$0-L;
#X obj 361 233 throw~ \$0-L;
#X obj 461 233 throw~ \$0-L;
#X obj 618 230 throw~ \$0-R;
#X obj 721 230 throw~ \$0-R;
#X obj 827 230 throw~ \$0-R;
#X obj 361 289 catch~ \$0-L;
#X obj 721 289 catch~ \$0-R;
#X obj 292 190 wstd.cmpnnts/eq_pass, f 23;
#X obj 653 195 wstd.cmpnnts/eq_pass, f 23;
#X obj 796 123 inlet;
#X connect 0 0 13 0;
#X connect 1 0 14 0;
#X connect 2 0 13 1;
#X connect 11 0 3 0;
#X connect 12 0 4 0;
#X connect 13 0 5 0;
#X connect 13 1 6 0;
#X connect 13 2 7 0;
#X connect 14 0 8 0;
#X connect 14 1 9 0;
#X connect 14 2 10 0;
#X connect 15 0 14 1;
#X restore 67 513 pd ms_eq_pass;
#X obj 327 33 r m_High @hv_param -15 15 0 db;
#X obj 327 124 r m_Mid @hv_param -15 15 0 db;
#X obj 566 145 r m_Mid_Freq @hv_param 313.3 5705.6 1337 log_hz;
#X obj 327 227 r m_Low @hv_param -15 15 0 db;
#X text 33 324 mid;
#X text 169 324 side;
#X obj 73 230 *~ 0.5;
#X obj 132 230 *~ 0.5;
#X obj 67 589 +~;
#X obj 132 589 -~;
#X obj 393 374 hsl 128 17 -15 15 0 0 empty empty empty -2 -8 0 10 #181818 #fcfcfc #fcfcfc 0 1;
#X msg 393 399 highvol \$1, f 11;
#X obj 393 463 hsl 128 17 -15 15 0 0 empty empty empty -2 -8 0 10 #181818 #fcfcfc #fcfcfc 0 1;
#X msg 393 488 midvol \$1, f 11;
#X obj 393 567 hsl 128 17 -15 15 0 0 empty empty empty -2 -8 0 10 #181818 #fcfcfc #fcfcfc 0 1;
#X msg 393 592 lowvol \$1, f 11;
#X msg 632 525 midfreq \$1, f 12;
#X msg 746 574 midq \$1, f 9;
#X obj 632 484 hsl 128 17 313.3 5705.6 1 0 empty empty empty -2 -8 0 10 #000000 #fcfcfc #585858 0 1;
#X obj 621 372 loadbang;
#X msg 669 410 1337, f 7;
#X msg 621 410 0, f 5;
#X obj 746 518 wstd.cmpnnts/eqmidq;
#X obj 746 546 wstd.cmpnnts/qcalc;
#X obj 393 341 r s_High @hv_param -15 15 0 db;
#X obj 393 432 r s_Mid @hv_param -15 15 0 db;
#X obj 632 453 r s_Mid_Freq @hv_param 313.3 5705.6 1337 log_hz;
#X obj 393 535 r s_Low @hv_param -15 15 0 db;
#X text 33 603 left;
#X text 167 603 right;
#X connect 0 0 26 0;
#X connect 0 1 27 0;
#X connect 2 0 3 0;
#X connect 3 0 19 2;
#X connect 4 0 5 0;
#X connect 5 0 19 2;
#X connect 6 0 7 0;
#X connect 7 0 19 2;
#X connect 8 0 19 2;
#X connect 9 0 19 2;
#X connect 10 0 8 0;
#X connect 10 0 14 0;
#X connect 11 0 13 0;
#X connect 11 0 12 0;
#X connect 12 0 10 0;
#X connect 13 0 2 0;
#X connect 13 0 4 0;
#X connect 13 0 6 0;
#X connect 14 0 15 0;
#X connect 15 0 9 0;
#X connect 17 0 19 0;
#X connect 18 0 19 1;
#X connect 19 0 28 0;
#X connect 19 0 29 0;
#X connect 19 1 28 1;
#X connect 19 1 29 1;
#X connect 20 0 2 0;
#X connect 21 0 4 0;
#X connect 22 0 10 0;
#X connect 23 0 6 0;
#X connect 26 0 17 0;
#X connect 26 0 18 0;
#X connect 27 0 17 1;
#X connect 27 0 18 1;
#X connect 28 0 1 0;
#X connect 29 0 1 1;
#X connect 30 0 31 0;
#X connect 31 0 19 3;
#X connect 32 0 33 0;
#X connect 33 0 19 3;
#X connect 34 0 35 0;
#X connect 35 0 19 3;
#X connect 36 0 19 3;
#X connect 37 0 19 3;
#X connect 38 0 36 0;
#X connect 38 0 42 0;
#X connect 39 0 41 0;
#X connect 39 0 40 0;
#X connect 40 0 38 0;
#X connect 41 0 30 0;
#X connect 41 0 32 0;
#X connect 41 0 34 0;
#X connect 42 0 43 0;
#X connect 43 0 37 0;
#X connect 44 0 30 0;
#X connect 45 0 32 0;
#X connect 46 0 38 0;
#X connect 47 0 34 0;
